<?xml version="1.0" standalone="no"?>
<!DOCTYPE svg PUBLIC "-//W3C//DTD SVG 20010904//EN"
 "http://www.w3.org/TR/2001/REC-SVG-20010904/DTD/svg10.dtd">
<svg version="1.0" xmlns="http://www.w3.org/2000/svg"
 width="96.000000pt" height="96.000000pt" viewBox="0 0 96.000000 96.000000"
 preserveAspectRatio="xMidYMid meet">
<metadata>
Created by potrace 1.15, written by Peter Selinger 2001-2017
</metadata>
<g transform="translate(0.000000,96.000000) scale(0.100000,-0.100000)"
fill="#000000" stroke="none">
<path d="M760 843 c0 -11 -102 -33 -147 -33 -22 0 -33 -4 -33 -14 0 -7 -10
-16 -21 -19 -17 -5 -21 -12 -17 -36 4 -25 1 -31 -14 -31 -10 0 -18 -7 -18 -15
0 -13 -28 -15 -195 -15 -123 0 -195 4 -195 10 0 20 -50 9 -75 -15 -24 -25 -35
-75 -15 -75 6 0 10 -72 10 -195 0 -123 -4 -195 -10 -195 -20 0 -9 -50 15 -75
25 -24 75 -35 75 -15 0 6 97 10 270 10 173 0 270 -4 270 -10 0 -20 50 -9 75
15 24 25 35 75 15 75 -6 0 -10 40 -10 100 0 93 1 100 20 100 11 0 20 7 20 15
0 9 11 21 25 27 16 7 25 19 25 33 0 17 8 24 30 29 18 3 30 12 30 21 0 8 6 15
14 15 8 0 19 14 25 31 13 38 14 69 2 69 -10 0 -25 74 -22 107 3 26 -27 63 -50
63 -10 0 -19 5 -21 10 -4 13 -78 26 -78 13z m-235 -245 c3 -24 9 -51 11 -60 4
-13 0 -18 -15 -18 -14 0 -21 -6 -21 -20 0 -15 -7 -20 -25 -20 -20 0 -25 -5
-25 -25 0 -24 -3 -25 -60 -25 -57 0 -60 1 -60 25 0 20 -5 25 -25 25 -18 0 -25
5 -25 20 0 16 -7 20 -30 20 -25 0 -30 4 -30 25 0 20 -5 25 -25 25 -18 0 -25 5
-25 19 0 15 -8 21 -32 23 -17 2 -33 9 -36 16 -3 9 43 12 206 12 l210 0 7 -42z
m-405 -63 c0 -20 5 -25 25 -25 18 0 25 -5 25 -19 0 -15 8 -21 33 -23 20 -2 32
-8 32 -18 0 -10 -12 -16 -32 -18 -25 -2 -33 -8 -33 -23 0 -14 -7 -19 -25 -19
-20 0 -25 -5 -25 -25 0 -18 -5 -25 -20 -25 -19 0 -20 7 -20 110 0 103 1 110
20 110 15 0 20 -7 20 -25z m270 -165 c19 0 65 2 103 6 67 6 67 6 67 -20 0 -21
5 -26 25 -26 18 0 25 -5 25 -20 0 -16 7 -20 30 -20 25 0 30 -4 30 -25 0 -16 6
-25 15 -25 18 0 20 -41 3 -58 -17 -17 -579 -17 -596 0 -17 17 -15 58 3 58 9 0
15 9 15 25 0 21 5 25 30 25 23 0 30 4 30 20 0 15 7 20 25 20 20 0 25 5 25 26
0 26 0 26 68 20 37 -4 83 -6 102 -6z"/>
</g>
</svg>
